<?xml version="1.0" ?><svg height="24px" version="1.1" viewBox="0 0 24 24" width="24px" xmlns="http://www.w3.org/2000/svg" xmlns:xlink="http://www.w3.org/1999/xlink"><title/><desc/><g fill="none" fill-rule="evenodd" id="Social-/-17---Social,-avatar,-person,-user-icon" stroke="none" stroke-linecap="round" stroke-linejoin="round" stroke-width="1"><path d="M12,22 C6.4771525,22 2,17.5228475 2,12 C2,6.4771525 6.4771525,2 12,2 C17.5228475,2 22,6.4771525 22,12 C22,17.5228475 17.5228475,22 12,22 Z" id="Path" stroke="#000000" stroke-width="2"/><path d="M12,16 C9.23857625,16 7,13.7614237 7,11 C7,8.23857625 9.23857625,6 12,6 C14.7614237,6 17,8.23857625 17,11 C17,13.7614237 14.7614237,16 12,16 Z" id="Path" stroke="#000000" stroke-width="2"/><path d="M5.5,19 C6.90101773,17 9.06921621,16 12.0045954,16 C14.9335635,16 17.0986984,16.9956366 18.5,18.9869097" id="Path" stroke="#000000" stroke-width="2"/></g></svg>